<?xml version="1.0" encoding="utf-8"?>
<!-- Generator: Adobe Illustrator 26.2.1, SVG Export Plug-In . SVG Version: 6.00 Build 0)  -->
<svg version="1.1" id="Calque_1" xmlns="http://www.w3.org/2000/svg" xmlns:xlink="http://www.w3.org/1999/xlink" x="0px" y="0px"
	 viewBox="0 0 50 50" style="enable-background:new 0 0 50 50;" xml:space="preserve">
<style type="text/css">
	.st0{fill:#FFFFFF;}
</style>
<g>
	<path class="st0" d="M25,3.5c-8.5,0-15.5,7-15.5,15.5c0,4.7,4.6,11,8.6,15.6c-4.6,1.1-7.4,3.1-7.4,5.6c0,4.1,7.3,6.3,14.2,6.3
		c6.9,0,14.2-2.2,14.2-6.3c0-2.4-2.8-4.5-7.4-5.6C36,30,40.5,23.8,40.5,19C40.5,10.5,33.6,3.5,25,3.5L25,3.5z M37.3,40.2
		c0,2.1-5.2,4.3-12.3,4.3s-12.3-2.3-12.3-4.3c0-1.3,2.4-3,6.9-3.9c2.5,2.7,4.5,4.5,4.7,4.7c0.2,0.2,0.4,0.3,0.7,0.3
		c0.2,0,0.5-0.1,0.7-0.3c0.2-0.2,2.2-2,4.7-4.7C34.9,37.2,37.3,38.9,37.3,40.2L37.3,40.2z M25,39C22.2,36.3,11.5,25.5,11.5,19
		c0-7.5,6.1-13.5,13.5-13.5c7.5,0,13.5,6.1,13.5,13.5C38.5,25.5,27.8,36.3,25,39z"/>
	<path class="st0" d="M25,12.1c-3.5,0-6.4,2.9-6.4,6.4c0,3.5,2.9,6.4,6.4,6.4c3.5,0,6.4-2.9,6.4-6.4C31.5,15,28.6,12.1,25,12.1
		L25,12.1z M25,23c-2.5,0-4.4-2-4.4-4.4s2-4.4,4.4-4.4s4.4,2,4.4,4.4S27.5,23,25,23z"/>
</g>
</svg>
